<svg version="1.2" xmlns="http://www.w3.org/2000/svg" viewBox="0 0 100 100" width="100" height="100">
	<style>
		.s0 { fill: #00b046 } 
		.s1 { fill: #affe5d } 
	</style>
	<path id="Shape 1" fill-rule="evenodd" class="s0" d="m100 0v100h-100v-100z"/>
	<path id="1cp " fill-rule="evenodd" class="s1" d="m30.98 57v-1.99h3.86v-13.35l-4.2 0.84v-2.15l4.18-0.85h2.37v15.51h3.86v1.99zm23.74-12.62v2.01q-0.92-0.5-1.84-0.75-0.92-0.25-1.86-0.25-2.09 0-3.25 1.33-1.16 1.33-1.16 3.73 0 2.4 1.16 3.74 1.16 1.32 3.25 1.32 0.94 0 1.86-0.24 0.92-0.26 1.84-0.77v2q-0.91 0.42-1.88 0.63-0.96 0.21-2.05 0.21-2.97 0-4.71-1.86-1.75-1.87-1.75-5.03 0-3.21 1.76-5.05 1.77-1.84 4.84-1.84 1 0 1.95 0.21 0.94 0.2 1.84 0.61zm5.64 10.65v6.96h-2.17v-18.12h2.17v2q0.68-1.17 1.71-1.74 1.04-0.57 2.48-0.57 2.39 0 3.88 1.9 1.5 1.9 1.5 4.99 0 3.09-1.5 4.99-1.49 1.9-3.88 1.9-1.44 0-2.48-0.56-1.03-0.58-1.71-1.75zm7.33-4.58q0-2.38-0.98-3.73-0.98-1.36-2.69-1.36-1.71 0-2.69 1.36-0.97 1.35-0.97 3.73 0 2.38 0.97 3.74 0.98 1.35 2.69 1.35 1.71 0 2.69-1.35 0.98-1.36 0.98-3.74z"/>
</svg>